<svg xmlns="http://www.w3.org/2000/svg" viewBox="0 0 1022.14 394.2"><defs><style>.cls-1{fill:#900;}.cls-2{fill:#933;}</style></defs><title>Asset 2</title><g id="Layer_2" data-name="Layer 2"><g id="Layer_11" data-name="Layer 11"><path class="cls-1" d="M702.3,86.93c1.18-9.61,10.42-20.66,19.89-20.66,11.14,0,19.43,9.41,19.43,20.66Zm60.87,15.34c4.5-30.48-16.58-53-41-53-25.81,0-43.1,23.93-43.1,53S697.8,155,726.22,155c14,0,28.19-7.77,36-19.63l-11.13-8.59c-7.34,8.59-14.68,11.25-22.74,11.25-14.45,0-27.47-12.48-27.47-35.8Zm-176-37.63c-6.63-9.21-17.29-14.53-29.37-14.53a36.89,36.89,0,0,0-28.42,13.3L521.1,51.14h-5.92V153.41h19.89V86.73c0-10.44,8.77-18.82,19.66-18.82s19.66,7.77,19.66,22.29v63.21h19.9V86.73c0-10.44,8.76-18.82,19.66-18.82s19.66,7.77,19.66,22.29v63.21H653.5V88.16c0-23.52-16.1-38-36.24-38C605,50.11,594.76,56.05,587.18,64.64ZM427.54,102.27c0-20.66,9.47-36,20.6-36,11.37,0,20.61,15.34,20.61,36s-9.24,35.8-20.61,35.8C437,138.07,427.54,122.93,427.54,102.27Zm-20.85,0c0,30.07,16.82,52.77,41.45,52.77s41.45-22.7,41.45-52.77-16.81-53-41.45-53S406.69,72.2,406.69,102.27ZM321.9,153.41V86.73c0-10.44,8.76-18.82,19.65-18.82s19.66,7.77,19.66,22.29v63.21h19.9V88.16c0-23.52-16.11-38-36.48-38a36.89,36.89,0,0,0-28.42,13.3l-8.29-12.27H302V153.41Zm-67.27-85.3v85.3h19.89V51.14H195.41V37.23c0-14.53,9-22.09,19.9-22.09l9.47,14.31h5.92V4.91C225.49,1.43,217.68,0,212,0c-20.13,0-36.24,14.52-36.24,38.05V51.14H149.93v17h25.82v85.3h19.66V68.11Zm21.79-47.66c0-5.72-5.45-10.22-11.84-10.22-6.64,0-11.85,4.5-11.85,10.22,0,5.53,5.21,10.23,11.85,10.23C271,30.68,276.42,26,276.42,20.45Zm-207.26,133V86.73c0-10.44,8.77-18.82,19.66-18.82s19.66,7.77,19.66,22.29v63.21h19.9V88.16c0-23.52-16.11-38-36.48-38a36.89,36.89,0,0,0-28.42,13.3L55.19,51.14H49.27V153.41Zm-67.26,0H21.79V51.14H1.9Zm21.79-133c0-5.72-5.21-10.22-11.85-10.22C5.45,10.23,0,14.73,0,20.45,0,26,5.45,30.68,11.84,30.68,18.48,30.68,23.69,26,23.69,20.45Z"/><path class="cls-2" d="M850.11,175.68c1.74-10.63,3.61-21.08,5.68-31.05l72.07-.24c-16.11,10.31-35.84,19.13-58.29,26-2.3.72-4.55,1.38-6.76,2l-6.71,48c6.22-1.61,13.15-3.6,20.54-6.07,40.07-12.92,74-31.94,100.81-56.52,32.27-27.49,48.92-59,43.76-88.76-4.59-20.94-19.8-33.84-21.57-35.24S981.09,19.92,953.3,14.94C913.06,7.86,873.1,19.1,843.38,46.6c-27.61,27.85-34.45,80-38.53,137.1a273.46,273.46,0,0,0-34.25,9.1c-36.74,12.92-60.53,31.93-70.87,56.51-9.24,27.5-2.13,59,16.91,88.76a188.51,188.51,0,0,0,26.67,35.24c1.37,1.4,13.35,13.84,26.68,18.82,18.17,7.08,33.25-4.16,45-31.65,14.44-27.86,21-80,28.16-137.1ZM752.6,337.79a90.38,90.38,0,0,1-13.32-18.56c-7.78-13.91-9.23-27-3.84-41.1a55.36,55.36,0,0,1,7.23-12.46l15.39,76.54A54.13,54.13,0,0,1,752.6,337.79Zm16.11,10a24.17,24.17,0,0,1-3-1.1l-16-88.69a84.89,84.89,0,0,1,7.64-6.27l15.36,96.78A16.88,16.88,0,0,1,768.71,347.75Zm10.57-.69L765.44,246.45q4-2.32,8.36-4.46l11.59,99.52A18.68,18.68,0,0,1,779.28,347.06Zm20.05-63.94c-1.77,23.31-4.43,39.39-8.06,47.81l-8.86-92.76c1.21-.5,2.44-1,3.69-1.46,5.73-2.16,11.28-3.91,16.34-5.32C801.64,249.68,800.74,267.48,799.33,283.12ZM884,75.42c14.93-13.79,30-18.91,47-16.1a61.28,61.28,0,0,1,24.55,10c.73.66,8.65,8,11.57,18.56.12.45.22.89.32,1.33l-93.64.29A56.86,56.86,0,0,1,884,75.42Zm64.55,53.52q-2.44,2.22-5.12,4.38l-85.12.28q1.18-4.93,2.46-9.64c.12-.47.25-.93.38-1.4l94.17-.3Q952.25,125.57,948.51,128.94Zm15-17.72-99,.31q2-5.93,4.07-11l99.07-.3A34.15,34.15,0,0,1,963.52,111.22Z"/></g></g></svg>