<svg xmlns="http://www.w3.org/2000/svg" viewBox="0 0 359.09 419.49"><defs><style>.cls-1{fill:#933;}</style></defs><title>Asset 3</title><g id="Layer_2" data-name="Layer 2"><g id="Layer_12" data-name="Layer 12"><path class="cls-1" d="M169.85,179.1c1.91-11.69,4-23.19,6.25-34.16l79.28-.26c-17.72,11.34-39.43,21-64.12,28.57q-3.8,1.19-7.43,2.2l-7.38,52.79c6.83-1.77,14.46-4,22.58-6.68,44.08-14.21,81.45-35.13,110.9-62.17,35.5-30.25,53.82-64.93,48.14-97.65-5-23-21.78-37.22-23.73-38.76s-20.41-15.22-51-20.71C239.1-5.51,195.14,6.85,162.45,37.1c-30.38,30.64-37.9,88-42.38,150.82a302.77,302.77,0,0,0-37.69,10C42,212.14,15.8,233.06,4.43,260.1-5.74,290.35,2.08,325,23,357.74a207.42,207.42,0,0,0,29.34,38.77c1.51,1.54,14.69,15.22,29.36,20.71,20,7.78,36.57-4.58,49.54-34.83,15.88-30.64,23.1-88,31-150.82ZM62.58,357.43A99.93,99.93,0,0,1,47.93,337c-8.56-15.3-10.16-29.67-4.22-45.21a60,60,0,0,1,7.95-13.71l16.93,84.2A58.51,58.51,0,0,1,62.58,357.43Zm17.72,11a26.67,26.67,0,0,1-3.3-1.21L59.45,269.61a93,93,0,0,1,8.4-6.89l16.9,106.46A18.89,18.89,0,0,1,80.3,368.39Zm11.63-.76L76.7,257q4.38-2.55,9.2-4.9L98.65,361.52A20.34,20.34,0,0,1,91.93,367.63ZM114,297.29c-1.95,25.65-4.88,43.33-8.87,52.6l-9.75-102c1.34-.54,2.69-1.08,4.06-1.6,6.3-2.38,12.41-4.31,18-5.85C116.53,260.51,115.54,280.08,114,297.29ZM207.08,68.8c16.43-15.16,33-20.79,51.66-17.71a67.32,67.32,0,0,1,27,11c.81.72,9.52,8.79,12.73,20.41.13.49.25,1,.35,1.47l-103,.31Q201.25,74.34,207.08,68.8Zm71,58.88q-2.7,2.44-5.63,4.82l-93.65.31q1.31-5.43,2.71-10.61c.14-.51.28-1,.43-1.53l103.58-.33Q282.21,124,278.1,127.68Zm16.51-19.49-109,.34q2.19-6.51,4.48-12.14l109-.34A37.87,37.87,0,0,1,294.61,108.19Z"/></g></g></svg>